<?xml version="1.0" encoding="utf-8"?>
<!-- Generator: Adobe Illustrator 26.0.1, SVG Export Plug-In . SVG Version: 6.00 Build 0)  -->
<svg version="1.1" id="Layer_1" xmlns="http://www.w3.org/2000/svg" xmlns:xlink="http://www.w3.org/1999/xlink" x="0px" y="0px"
	 viewBox="0 0 30.3 29.98" style="enable-background:new 0 0 30.3 29.98;" xml:space="preserve">
<style type="text/css">
	.st0{display:none;}
	.st1{display:inline;fill:#FFFFFF;stroke:#F7931E;stroke-width:0.2835;stroke-linejoin:round;stroke-miterlimit:10;}
	.st2{display:inline;fill:#F7931E;}
	.st3{display:inline;opacity:0.23;}
	.st4{clip-path:url(#SVGID_00000008861749139352479160000007375234551876796051_);fill:#CCCCCC;}
	.st5{display:inline;fill:#F15A24;}
	.st6{display:inline;}
	.st7{fill:#FFFFFF;}
	.st8{fill:none;stroke:#FFFFFF;stroke-width:0.2835;stroke-linejoin:round;stroke-miterlimit:10;}
	.st9{opacity:0.23;}
	.st10{clip-path:url(#SVGID_00000143588211292588129350000011810381232284438958_);fill:#FFFFFF;}
	.st11{fill:#FFFFFF;stroke:#F7931E;stroke-width:0.6094;stroke-miterlimit:10;}
	.st12{fill:#A0550A;}
	.st13{fill:#F7931E;}
</style>
<g class="st0">
	<path class="st1" d="M8.94,6.29h18.92c1.22,0,2.2,0.99,2.2,2.2v19.28c0,1.21-0.99,2.2-2.2,2.2H16.65L8.94,6.29z"/>
	<path class="st2" d="M28.82,17.57c-1.14-0.93-1.87-0.93-3.38-0.9c-1.51,0.03-3.42-0.14-3.52-0.16s-0.11-0.09-0.11-0.09
		c0.11-0.2,1.1-0.81,1.37-0.99c0.27-0.18,3.44-1.65,3.5-1.69c0.07-0.05,0.33-0.97,0.36-1.04c0.03-0.07-0.02-0.09-0.09-0.09
		c-0.07,0-3.05,1.41-3.04,1.42c-2.26,0.27-2.79-0.65-3.33-1.31c-0.54-0.67-0.45-1.32-0.4-1.37c0.05-0.05,0.7-0.35,2.13-0.62
		c1.44-0.26,2.62,0.44,2.62,0.44s0.16,0,0.09-0.14c-0.92-0.9-1.82-1.23-3.21-1.16c-1.39,0.07-1.86,0.97-2.02,1.37
		c-0.16,0.4-0.29,1.06,0.05,2.08c0.33,1.02,1.77,1.65,2.07,1.76c0.18,0.07-0.14,0.26-0.49,0.64c-0.36,0.37-0.43,0.67-0.59,0.64
		c-0.16-0.02-0.61-0.28-0.68-0.16c-0.02,0.05,0.56,0.42,0.54,0.46c-0.02,0.04-0.43,0.69-0.52,0.97c-0.07,0.35-0.71,1.72-0.52,3.77
		c0.21,2.05,2.31,2.73,2.62,2.87c0.31,0.14,0.76,0.31,2.29,0.2c0.7-0.05,1.49-0.35,2.09-0.75c0.7-0.46,1.11-0.79,1.6-1.34
		c0.64-0.71,1.1-1.93,1.15-2.78C29.41,19.44,29.24,17.9,28.82,17.57z M27.87,21.6c-0.24,0.2-1.46,1.55-3.09,1.72
		c-1.63,0.18-2.36-0.2-2.58-0.26c-0.23-0.07-1.98-0.77-2.22-2.27c0,0-0.17-2.11,1.2-3.62c0.21-0.36,0.55-0.17,0.61-0.1
		c0.07,0.07,0.76,0.57,1.16,0.64c0.4,0.07,3.42,0.16,3.97,0.23c0.56,0.07,1.75,0.4,2.05,1.37C29.26,20.27,28.12,21.4,27.87,21.6z"/>
	<g class="st3">
		<g>
			<defs>
				<path id="SVGID_1_" d="M8.94,6.29h18.92c1.22,0,2.2,0.99,2.2,2.2v19.28c0,1.21-0.99,2.2-2.2,2.2H16.65L8.94,6.29z"/>
			</defs>
			<clipPath id="SVGID_00000124855943156033796020000008107470241726855587_">
				<use xlink:href="#SVGID_1_"  style="overflow:visible;"/>
			</clipPath>
			<path style="clip-path:url(#SVGID_00000124855943156033796020000008107470241726855587_);fill:#CCCCCC;" d="M15.8,6.29h0.39
				l13.87,13.82c0,0,1.63,9.18,1.63,9.24c0,0.06-1.46,2.2-1.63,2.19c-0.19-0.01-13.35,0.96-13.35,0.96s0.24-2.67,0.06-3.83
				s-0.42-4.25-0.42-4.38c0-0.12-0.3-1.71-0.55-2.41c-0.24-0.69-1.16-4.21-1.16-4.21l-1.94-9.03L15.8,6.29z"/>
		</g>
	</g>
	<path class="st2" d="M13.98,0.34H2.69c-1.24,0-2.25,1.01-2.25,2.25v19.68c0,1.24,1.01,2.25,2.25,2.25h18.99L13.98,0.34z"/>
	<polygon class="st5" points="21.68,24.5 16.58,29.96 14.83,24.5 	"/>
	<g class="st6">
		<path class="st7" d="M4.95,18.17v-6.82H2.49v-0.61c0-0.24,0.09-0.45,0.25-0.62c0.17-0.17,0.37-0.25,0.62-0.25H9.1v1.47H6.66v6.82
			L4.95,18.17L4.95,18.17z"/>
		<path class="st7" d="M9.41,18.17v-7.43c0-0.24,0.09-0.45,0.25-0.62c0.17-0.17,0.37-0.25,0.62-0.25h3.16c0.9,0,1.57,0.2,2.01,0.58
			c0.45,0.4,0.68,0.99,0.68,1.76c0,0.51-0.12,0.94-0.33,1.28c-0.2,0.32-0.5,0.56-0.92,0.7c0.37,0.13,0.63,0.32,0.77,0.58
			c0.15,0.24,0.23,0.66,0.26,1.23l0.05,0.99c0,0.2-0.01,0.43,0.02,0.63c0.05,0.29,0.15,0.48,0.29,0.56h-1.88
			c-0.08-0.17-0.13-0.33-0.15-0.51c-0.03-0.25-0.05-0.43-0.05-0.53l-0.02-0.89c-0.03-0.48-0.13-0.82-0.29-1.04
			c-0.18-0.18-0.49-0.26-0.94-0.26h-1.81v3.23C11.13,18.17,9.41,18.17,9.41,18.17z M11.12,13.49h2.01c0.43,0,0.75-0.09,0.97-0.26
			c0.22-0.18,0.31-0.45,0.31-0.82c0-0.37-0.1-0.65-0.31-0.82c-0.2-0.2-0.48-0.29-0.87-0.29h-2.09L11.12,13.49L11.12,13.49z"/>
	</g>
</g>
<g>
	<path class="st8" d="M8.94,6.27h18.92c1.22,0,2.21,0.98,2.21,2.2v19.21c0,1.21-0.99,2.2-2.21,2.2H16.65L8.94,6.27z"/>
	<path class="st7" d="M28.82,17.5c-1.13-0.92-1.87-0.92-3.38-0.9c-1.5,0.02-3.41-0.13-3.52-0.15c-0.11-0.02-0.11-0.09-0.11-0.09
		c0.11-0.2,1.1-0.81,1.37-0.99s3.43-1.65,3.5-1.69c0.07-0.04,0.34-0.97,0.36-1.03s-0.02-0.09-0.09-0.09s-3.05,1.4-3.04,1.41
		c-2.26,0.27-2.79-0.64-3.33-1.3c-0.54-0.66-0.45-1.32-0.4-1.36c0.04-0.04,0.7-0.35,2.13-0.61s2.63,0.44,2.63,0.44s0.16,0,0.09-0.13
		c-0.92-0.9-1.82-1.23-3.21-1.16s-1.86,0.97-2.02,1.36c-0.16,0.39-0.29,1.05,0.04,2.06s1.77,1.65,2.07,1.76
		c0.18,0.07-0.13,0.26-0.49,0.64s-0.43,0.66-0.58,0.64c-0.16-0.02-0.61-0.29-0.67-0.15c-0.02,0.04,0.56,0.42,0.54,0.46
		c-0.02,0.04-0.43,0.68-0.52,0.97c-0.07,0.35-0.72,1.71-0.52,3.75c0.2,2.04,2.31,2.72,2.63,2.85c0.31,0.13,0.76,0.31,2.29,0.2
		c0.71-0.05,1.49-0.35,2.09-0.75c0.7-0.46,1.1-0.79,1.59-1.34c0.63-0.71,1.09-1.93,1.14-2.76C29.41,19.36,29.24,17.83,28.82,17.5z
		 M27.87,21.52c-0.25,0.2-1.46,1.54-3.1,1.71c-1.64,0.18-2.36-0.2-2.58-0.26c-0.22-0.07-1.98-0.77-2.22-2.26
		c0,0-0.16-2.11,1.21-3.61c0.21-0.36,0.55-0.16,0.61-0.1c0.07,0.06,0.76,0.57,1.17,0.64c0.4,0.07,3.41,0.15,3.97,0.22
		c0.56,0.07,1.75,0.39,2.04,1.36C29.26,20.18,28.12,21.32,27.87,21.52z"/>
	<g class="st9">
		<defs>
			<path id="SVGID_00000050646542778698615310000002825898267106670469_" class="st9" d="M8.94,6.27h18.92
				c1.22,0,2.21,0.98,2.21,2.2v19.21c0,1.21-0.99,2.2-2.21,2.2H16.65L8.94,6.27z"/>
		</defs>
		<clipPath id="SVGID_00000101071894854689231070000017058634609510048671_">
			<use xlink:href="#SVGID_00000050646542778698615310000002825898267106670469_"  style="overflow:visible;"/>
		</clipPath>
		<path style="clip-path:url(#SVGID_00000101071894854689231070000017058634609510048671_);fill:#FFFFFF;" d="M15.8,6.27h0.39
			l13.88,13.77c0,0,1.64,9.15,1.64,9.21c0,0.06-1.46,2.19-1.64,2.19c-0.18-0.01-13.36,0.96-13.36,0.96s0.24-2.66,0.06-3.81
			c-0.18-1.15-0.42-4.23-0.42-4.35s-0.3-1.71-0.55-2.4c-0.24-0.69-1.15-4.19-1.15-4.19L12.7,8.63L15.8,6.27z"/>
	</g>
	<path class="st11" d="M13.98,0.34H2.69c-1.24,0-2.25,1-2.25,2.24v19.6c0,1.24,1.01,2.24,2.25,2.24h18.99L13.98,0.34z"/>
	<polygon class="st12" points="21.68,24.43 16.65,29.87 14.84,24.43 	"/>
	<g>
		<path class="st13" d="M4.95,18.1v-6.8H2.49v-0.6c0-0.24,0.08-0.44,0.25-0.61c0.17-0.17,0.37-0.25,0.62-0.25H9.1v1.47H6.66v6.8
			H4.95z"/>
		<path class="st13" d="M9.41,18.1v-7.4c0-0.24,0.08-0.44,0.25-0.61c0.17-0.17,0.37-0.25,0.62-0.25h3.16c0.9,0,1.57,0.19,2,0.58
			c0.45,0.4,0.68,0.99,0.68,1.75c0,0.51-0.11,0.94-0.34,1.27c-0.19,0.32-0.5,0.55-0.92,0.7c0.37,0.13,0.63,0.32,0.77,0.58
			c0.14,0.24,0.24,0.65,0.27,1.23l0.05,0.99c0,0.19-0.01,0.43,0.02,0.62c0.05,0.29,0.14,0.47,0.29,0.55h-1.88
			c-0.08-0.16-0.13-0.33-0.14-0.5c-0.03-0.26-0.05-0.43-0.05-0.53l-0.02-0.89c-0.03-0.48-0.13-0.82-0.29-1.03
			c-0.17-0.17-0.49-0.26-0.94-0.26h-1.81v3.22H9.41z M11.13,13.44h2c0.43,0,0.75-0.09,0.96-0.26c0.21-0.17,0.31-0.45,0.31-0.82
			c0-0.37-0.1-0.64-0.31-0.82c-0.19-0.19-0.48-0.29-0.87-0.29h-2.1V13.44z"/>
	</g>
</g>
</svg>
